<?xml version="1.0" encoding="utf-8"?>
<!-- Generator: Adobe Illustrator 25.4.1, SVG Export Plug-In . SVG Version: 6.00 Build 0)  -->
<!DOCTYPE svg PUBLIC "-//W3C//DTD SVG 1.1//EN" "http://www.w3.org/Graphics/SVG/1.1/DTD/svg11.dtd" [
	<!ENTITY ns_extend "http://ns.adobe.com/Extensibility/1.0/">
	<!ENTITY ns_ai "http://ns.adobe.com/AdobeIllustrator/10.0/">
	<!ENTITY ns_graphs "http://ns.adobe.com/Graphs/1.0/">
	<!ENTITY ns_vars "http://ns.adobe.com/Variables/1.0/">
	<!ENTITY ns_imrep "http://ns.adobe.com/ImageReplacement/1.0/">
	<!ENTITY ns_sfw "http://ns.adobe.com/SaveForWeb/1.0/">
	<!ENTITY ns_custom "http://ns.adobe.com/GenericCustomNamespace/1.0/">
	<!ENTITY ns_adobe_xpath "http://ns.adobe.com/XPath/1.0/">
]>
<svg version="1.1" xmlns:x="&ns_extend;" xmlns:i="&ns_ai;" xmlns:graph="&ns_graphs;"
	 xmlns="http://www.w3.org/2000/svg" xmlns:xlink="http://www.w3.org/1999/xlink" x="0px" y="0px" viewBox="0 0 2340 1560"
	 style="enable-background:new 0 0 2340 1560;" xml:space="preserve">
<style type="text/css">
	.st0{fill:#FFFFFF;}
	.st1{fill:#192316;}
	.st2{fill:#F15639;}
	.st3{fill:#FCEEDA;}
	.st4{fill:#F7BAD5;}
	.st5{fill:#6D63AC;}
	.st6{fill:#254A92;}
	.st7{fill:#FBB21F;}
	.st8{fill:#EFC054;}
	.st9{fill:#121614;}
	.st10{fill:#A65950;}
	.st11{fill:#F3AB92;}
	.st12{fill:#701A11;}
	.st13{fill:#F2CFAF;}
	.st14{fill:#BEB7DB;}
	.st15{clip-path:url(#SVGID_00000022543541952228238620000002372594894449686436_);}
	.st16{fill:#284991;}
	.st17{fill:#B77465;}
	.st18{opacity:0.6;}
	.st19{fill:#5D81BA;}
	.st20{fill:#9B77B5;}
	.st21{fill:#4C302E;}
	.st22{clip-path:url(#SVGID_00000152240744963295103070000011453054520928706744_);}
	.st23{clip-path:url(#SVGID_00000111873217105076525310000002336276651874032037_);}
	.st24{fill:none;}
	.st25{fill:#E79774;}
</style>
<metadata>
	<sfw  xmlns="&ns_sfw;">
		<slices></slices>
		<sliceSourceBounds  bottomLeftOrigin="true" height="3045.5" width="6751.8" x="199.9" y="-3141.4"></sliceSourceBounds>
	</sfw>
</metadata>
<g id="Layer_2">
	<g>
		<g>
			<g>
				<path class="st0" d="M1699.6,1017c-7.1,19.6-27.1,26.1-44.3,14.3l-92.2-62.9c-17.3-11.8-45.7-12.1-63.2-0.7l-96.3,62.9
					c-17.5,11.4-38,4.8-45.5-14.7l-41.8-108.4c-7.5-19.5-30.7-36.1-51.6-36.9l-108.9-4c-20.9-0.8-33.4-17.9-27.8-38l30.9-111
					c5.6-20.1-3.3-47.2-19.7-60.1l-87.5-68.7c-16.4-12.9-16.2-33.7,0.6-46.2l89.7-66.9c16.8-12.5,25.9-39.2,20.3-59.3L1130.7,303
					c-5.6-20.1,6.9-37,27.8-37.5l110.6-2.6c20.9-0.5,44.1-16.8,51.6-36.4l41.7-108.7c7.5-19.5,27.8-25.9,45.1-14.2l93.5,63.2
					c17.3,11.7,45.7,11.9,63.2,0.4l95-62.6c17.4-11.5,37.5-4.8,44.5,14.9l37.9,106.7c7,19.7,29.8,36.5,50.7,37.4l114.5,4.7
					c20.9,0.9,33.1,18,27.2,38l-32.1,108.1c-5.9,20,2.6,47.1,19,60.1l90.2,71.6c16.4,13,16,33.8-0.7,46.3l-84.4,62.7
					c-16.8,12.5-26.4,39.3-21.5,59.6l28.7,117.2c5,20.3-8,37.5-28.9,38.2L1789,874c-20.9,0.7-43.8,17.4-50.9,37L1699.6,1017z"/>
			</g>
			<g>
				<path class="st1" d="M1673.1,1039.2c-6.4,0-12.9-2.1-19-6.3L1562,970c-16.7-11.4-44-11.7-61-0.6l-96.3,62.9
					c-9,5.9-19,7.5-28.2,4.5c-9.2-3-16.4-10.1-20.2-20.1l-41.8-108.4c-7.3-18.9-29.6-34.8-49.8-35.6l-108.9-4
					c-10.7-0.4-19.7-4.9-25.4-12.6c-5.6-7.7-7.1-17.6-4.3-28l30.9-111c5.4-19.5-3.1-45.5-19-58l-87.5-68.7
					c-8.5-6.6-13-15.5-12.9-24.8c0.1-9.4,4.9-18.1,13.5-24.5l89.7-66.9c16.2-12.1,25-37.7,19.5-57.2l-31.6-113.5
					c-2.9-10.3-1.4-20.2,4.3-27.8c5.6-7.6,14.7-11.9,25.4-12.2l110.6-2.6c20.2-0.5,42.5-16.2,49.8-35.1l41.7-108.7
					c3.8-10,11-17.1,20.1-20c9.1-2.9,19.1-1.1,27.9,4.9l93.5,63.2c16.7,11.3,44.1,11.5,61,0.4l95-62.6c9-5.9,18.9-7.5,27.9-4.5
					c9,3,16,10.2,19.6,20.4l37.9,106.7c6.8,19,28.7,35.2,48.9,36l114.5,4.7c10.7,0.4,19.7,4.9,25.2,12.6c5.5,7.7,6.9,17.6,3.8,27.9
					l-32.1,108.1c-5.8,19.4,2.4,45.4,18.3,57.9l90.2,71.6c8.4,6.7,13,15.5,12.8,24.9c-0.2,9.4-5,18.1-13.6,24.5l-84.4,62.7
					c-16.2,12.1-25.5,37.8-20.7,57.5l28.7,117.2c2.6,10.4,0.7,20.4-5.1,28.1s-15,12.2-25.7,12.5L1789,876
					c-20.2,0.7-42.2,16.7-49.1,35.7l-38.4,106c-3.7,10.1-10.6,17.3-19.6,20.2C1679,1038.7,1676.1,1039.2,1673.1,1039.2z
					 M1530.9,957.3c12.1,0,24.2,3.1,33.3,9.4l92.2,62.9c7.8,5.3,16.4,6.9,24.2,4.4c7.8-2.5,13.9-8.8,17.1-17.7l38.4-106
					c7.4-20.4,31.1-37.6,52.7-38.3l115.2-3.9c9.5-0.3,17.5-4.2,22.6-11c5.1-6.7,6.7-15.5,4.4-24.8l-28.7-117.2
					c-5.2-21.1,4.8-48.7,22.2-61.6l84.4-62.7c7.6-5.6,11.9-13.2,12-21.4c0.1-8.1-3.9-15.9-11.3-21.7l-90.2-71.6
					c-17-13.5-25.8-41.4-19.6-62.2l32.1-108.1c2.7-9.1,1.6-17.8-3.2-24.5c-4.8-6.7-12.6-10.6-22.1-11l-114.5-4.7
					c-21.7-0.9-45.2-18.3-52.5-38.7l-37.9-106.7c-3.2-8.9-9.2-15.3-17.1-17.9c-7.8-2.6-16.5-1.2-24.4,4l-95,62.6
					c-18.1,11.9-47.5,11.8-65.4-0.4l-93.5-63.2c-7.9-5.3-16.6-6.9-24.5-4.4c-7.9,2.5-14.2,8.8-17.6,17.6l-41.7,108.7
					c-7.8,20.3-31.7,37.1-53.4,37.6l-110.6,2.6c-9.5,0.2-17.4,4-22.3,10.6c-4.9,6.6-6.2,15.3-3.6,24.4l31.6,113.5
					c5.8,20.9-3.6,48.5-21,61.5l-89.7,66.9c-7.6,5.7-11.8,13.2-11.9,21.4c-0.1,8.1,3.9,15.8,11.4,21.6l87.5,68.7
					c17.1,13.4,26.2,41.3,20.4,62.2l-30.9,111c-2.5,9.1-1.3,17.9,3.6,24.5c4.9,6.7,12.8,10.6,22.3,10.9l108.9,4
					c21.7,0.8,45.6,17.9,53.4,38.1l41.8,108.4c3.4,8.9,9.7,15.2,17.7,17.8c8,2.6,16.8,1.2,24.8-4l96.3-62.9
					C1507.7,960.2,1519.3,957.3,1530.9,957.3z M1699.6,1017L1699.6,1017L1699.6,1017z"/>
			</g>
		</g>
		<g>
			<g>
				<path class="st0" d="M1382.4,776.4l-45.3-18.7l356.5-380.1l44,18.2L1382.4,776.4z M1405.8,390.3c15.8-38.2,33.8-64,54-77.2
					c20.2-13.2,41-15.4,62.5-6.5c22.2,9.2,35.8,25.6,40.7,49.1c5,23.5-0.5,54.5-16.4,93c-15.8,38.2-33.8,64-54,77.2
					c-20.2,13.2-41,15.4-62.5,6.5c-22.2-9.2-35.8-25.6-40.7-49.1C1384.4,459.8,1389.9,428.8,1405.8,390.3z M1453.7,409.5
					c-11.5,27.8-16.8,47.4-16,58.9c0.7,8.5,4.3,14.1,10.7,16.7c6.5,2.7,13.1,1.3,19.6-4.2c8.6-7.6,18.6-25.3,30.1-53
					c11.5-27.8,16.8-47.3,16.1-58.5c-0.7-8.7-4.2-14.4-10.8-17.1c-6.4-2.6-12.8-1.2-19.4,4.3
					C1475.3,364.1,1465.2,381.7,1453.7,409.5z M1527.6,705.2c15.8-38.2,33.8-64,54-77.2c20.2-13.2,41.2-15.4,62.9-6.4
					c21.9,9.1,35.3,25.4,40.2,49.1c4.9,23.6-0.5,54.6-16.4,92.8c-15.9,38.4-34,64.3-54.2,77.5c-20.2,13.2-41,15.4-62.5,6.5
					c-22.2-9.2-35.8-25.6-40.7-49.2C1506.2,774.6,1511.7,743.6,1527.6,705.2z M1575.4,724.6c-11.5,27.8-16.8,47.3-15.8,58.6
					c0.6,8.7,4.2,14.3,10.6,17c6.5,2.7,13,1.3,19.4-4.3c8.7-7.5,18.8-25.2,30.3-52.9c11.5-27.8,16.9-47.4,16.2-58.8
					c-0.7-8.5-4.4-14.1-10.9-16.8c-6.5-2.7-13-1.3-19.4,4.3C1597,679.2,1586.9,696.9,1575.4,724.6z"/>
				<path class="st1" d="M1577.3,854.9c-8.7,0-17.5-1.8-26.3-5.5c-22.7-9.4-36.8-26.5-41.9-50.7c-5-23.9,0.6-55.7,16.6-94.3
					c15.9-38.4,34.4-64.7,54.8-78.1c20.7-13.6,42.5-15.8,64.8-6.5c22.5,9.3,36.4,26.3,41.4,50.5c5,23.9-0.6,55.6-16.5,94
					c-16,38.6-34.5,65-54.9,78.4C1603,850.8,1590.3,854.9,1577.3,854.9z M1527.6,705.2l1.8,0.8c-15.7,37.9-21.2,68.8-16.4,92
					c4.7,22.8,18,38.9,39.5,47.8c20.7,8.6,41.1,6.4,60.6-6.4c19.8-13,37.7-38.7,53.4-76.6c15.6-37.7,21.1-68.5,16.3-91.7
					c-4.8-22.8-17.9-38.9-39-47.6c-21-8.7-41.6-6.6-61.1,6.2c-19.8,13-37.7,38.6-53.3,76.3L1527.6,705.2z M1576.5,803.5
					c-2.4,0-4.8-0.5-7.2-1.5c-7.1-2.9-11.1-9.2-11.8-18.7c-1-11.7,4.3-31.2,16-59.5c11.7-28.3,21.8-45.9,30.9-53.7
					c7-6.1,14.2-7.6,21.4-4.6c7.2,3,11.3,9.2,12.1,18.5c0.7,11.9-4.6,31.4-16.3,59.7c-11.7,28.3-21.8,45.9-30.9,53.7
					C1586.1,801.5,1581.3,803.5,1576.5,803.5z M1618.7,668.1c-3.9,0-7.7,1.7-11.6,5.1c-8.5,7.3-18.5,24.9-29.8,52.2
					c-11.3,27.3-16.6,46.7-15.7,57.7c0.6,8,3.6,13,9.3,15.3c5.8,2.4,11.5,1.1,17.3-3.9c8.5-7.3,18.5-24.9,29.8-52.2
					c11.3-27.3,16.7-46.8,16-57.9c-0.7-7.7-3.8-12.7-9.7-15.1C1622.4,668.5,1620.6,668.1,1618.7,668.1z M1575.4,724.6L1575.4,724.6
					L1575.4,724.6z M1382.4,778.4c-0.3,0-0.5,0-0.8-0.2l-45.3-18.7c-0.6-0.3-1.1-0.8-1.2-1.4c-0.1-0.6,0-1.3,0.5-1.8l356.5-380.1
					c0.6-0.6,1.5-0.8,2.2-0.5l44,18.2c0.6,0.3,1.1,0.8,1.2,1.4c0.1,0.6,0,1.3-0.5,1.8l-355.2,380.7
					C1383.4,778.1,1382.9,778.4,1382.4,778.4z M1340.5,756.9l41.3,17.1l352.3-377.5l-40-16.6L1340.5,756.9z M1455.6,539.8
					c-8.7,0-17.5-1.8-26.3-5.5c-22.7-9.4-36.9-26.4-41.9-50.5c-5-23.8,0.5-55.5,16.5-94.2l0,0c15.9-38.4,34.4-64.7,54.8-78.1
					c20.7-13.6,42.3-15.8,64.4-6.7c22.7,9.4,36.9,26.4,41.9,50.5c5,23.8-0.6,55.5-16.5,94.2c-15.9,38.4-34.4,64.7-54.8,78.1
					C1481.3,535.7,1468.6,539.8,1455.6,539.8z M1407.6,391.1c-15.7,37.9-21.2,68.8-16.3,91.8c4.8,22.7,18.1,38.8,39.5,47.7
					c20.7,8.6,41.1,6.4,60.6-6.4c19.8-13,37.7-38.6,53.3-76.3c15.7-37.9,21.2-68.8,16.3-91.8c-4.8-22.7-18.1-38.8-39.5-47.7
					c-20.7-8.6-41.1-6.4-60.6,6.4C1441.2,327.7,1423.2,353.4,1407.6,391.1L1407.6,391.1z M1454.9,488.4c-2.4,0-4.8-0.5-7.2-1.5
					c-7.1-2.9-11.1-9.1-11.9-18.4c-0.9-11.9,4.4-31.5,16.1-59.8l1.8,0.8l-1.8-0.8c11.7-28.3,21.8-45.9,30.9-53.7
					c7.1-6,14.3-7.5,21.4-4.6c7.3,3,11.3,9.3,12,18.8c0.8,11.7-4.5,31.1-16.2,59.4c-11.7,28.3-21.7,45.9-30.6,53.8
					C1464.5,486.4,1459.7,488.4,1454.9,488.4z M1497.1,353c-3.9,0-7.8,1.7-11.8,5.1c-8.4,7.3-18.5,24.8-29.8,52.2l0,0
					c-11.3,27.3-16.6,46.9-15.8,58c0.7,7.7,3.8,12.6,9.5,15c5.8,2.4,11.6,1.2,17.5-3.9c8.3-7.3,18.2-24.9,29.6-52.3
					c11.3-27.3,16.7-46.7,15.9-57.6c-0.6-7.9-3.7-13-9.5-15.4C1500.8,353.4,1499,353,1497.1,353z"/>
			</g>
		</g>
	</g>
	<g>
		<path class="st0" d="M700.1,505L510.2,341.7L320.6,505.6l0.4,549l379.5-0.7L700.1,505z M510.6,459.1c-14.4,0-26.1-11.7-26.1-26.1
			c0-14.4,11.7-26.1,26.1-26.1c14.4,0,26.1,11.7,26.1,26.1C536.6,447.4,525,459.1,510.6,459.1z"/>
		<path class="st1" d="M321,1056.6c-0.5,0-1-0.2-1.4-0.6c-0.4-0.4-0.6-0.9-0.6-1.4l-0.4-549c0-0.6,0.3-1.1,0.7-1.5l189.6-163.9
			c0.7-0.6,1.9-0.6,2.6,0l189.9,163.3c0.4,0.4,0.7,0.9,0.7,1.5l0.4,549c0,1.1-0.9,2-2,2L321,1056.6
			C321,1056.6,321,1056.6,321,1056.6z M322.6,506.5l0.4,546.1l375.5-0.6l-0.4-546.1L510.2,344.3L322.6,506.5z M510.6,461.1
			c-15.5,0-28.1-12.6-28.1-28.1s12.6-28.1,28.1-28.1c15.5,0,28.1,12.6,28.1,28.1S526,461.1,510.6,461.1z M510.6,408.9
			c-13.3,0-24.1,10.8-24.1,24.1s10.8,24.1,24.1,24.1c13.3,0,24.1-10.8,24.1-24.1S523.8,408.9,510.6,408.9z"/>
	</g>
	<g>
		<path class="st0" d="M1275.2,253.7c28,0,51,23,51,51v900.1c0,28-23,51-51,51h-378c-28,0-51-23-51-51V304.7c0-28,23-51,51-51
			H1275.2z"/>
	</g>
	<g>
		<path class="st1" d="M1275.2,1265.8h-378c-33.6,0-61-27.4-61-61V304.7c0-33.6,27.4-61,61-61h378c33.6,0,61,27.4,61,61v900.1
			C1336.2,1238.4,1308.8,1265.8,1275.2,1265.8z M897.1,263.7c-22.6,0-41,18.4-41,41v900.1c0,22.6,18.4,41,41,41h378
			c22.6,0,41-18.4,41-41V304.7c0-22.6-18.4-41-41-41H897.1z"/>
	</g>
	<g>
		<g>
			<path class="st2" d="M1581.2,482.5l0.2,309.8c0,7.2-6,13-13.4,13l-537.6,0.4c-7.4,0-13.4-5.8-13.4-13l-0.2-309.8
				c0-7.2,6-13,13.4-13l537.6-0.4C1575.2,469.5,1581.2,475.3,1581.2,482.5z"/>
		</g>
		<g>
			<path class="st3" d="M1470.4,674.6c2.8,0,5,0.9,6.6,2.8c1.9,2.2,2.9,5.9,2.9,11c0,5.1-1,8.8-2.9,11c-1.6,1.8-3.8,2.8-6.6,2.8
				c-2.8,0-5.1-1-6.9-3c-1.7-2-2.6-5.6-2.6-10.8c0-5.1,1-8.7,2.9-11C1465.4,675.6,1467.6,674.6,1470.4,674.6z M1470.4,678.9
				c-0.7,0-1.3,0.2-1.8,0.6c-0.5,0.4-0.9,1.1-1.2,2.1c-0.4,1.3-0.6,3.6-0.6,6.7c0,3.2,0.2,5.3,0.5,6.5c0.3,1.2,0.8,2,1.3,2.4
				c0.5,0.4,1.1,0.6,1.8,0.6c0.7,0,1.3-0.2,1.8-0.6c0.5-0.4,0.9-1.1,1.2-2.1c0.4-1.3,0.6-3.6,0.6-6.7c0-3.2-0.2-5.3-0.5-6.5
				c-0.3-1.2-0.8-2-1.3-2.4C1471.7,679.1,1471.1,678.9,1470.4,678.9z"/>
			<path class="st3" d="M1493.1,674.6c2.8,0,5,0.9,6.6,2.8c1.9,2.2,2.9,5.9,2.9,11c0,5.1-1,8.8-2.9,11c-1.6,1.8-3.8,2.8-6.6,2.8
				c-2.8,0-5.1-1-6.9-3c-1.7-2-2.6-5.6-2.6-10.8c0-5.1,1-8.7,2.9-11C1488.1,675.5,1490.3,674.6,1493.1,674.6z M1493.1,678.9
				c-0.7,0-1.3,0.2-1.8,0.6c-0.5,0.4-0.9,1.1-1.2,2.1c-0.4,1.3-0.6,3.6-0.6,6.7c0,3.2,0.2,5.3,0.5,6.5c0.3,1.2,0.8,2,1.3,2.4
				c0.5,0.4,1.1,0.6,1.8,0.6c0.7,0,1.3-0.2,1.8-0.6c0.5-0.4,0.9-1.1,1.2-2.1c0.4-1.3,0.6-3.6,0.6-6.7c0-3.2-0.2-5.3-0.5-6.5
				c-0.3-1.2-0.8-2-1.3-2.4C1494.4,679.1,1493.8,678.9,1493.1,678.9z"/>
			<path class="st3" d="M1515.8,674.6c2.8,0,5,0.9,6.6,2.8c1.9,2.2,2.9,5.9,2.9,11c0,5.1-1,8.8-2.9,11c-1.6,1.8-3.8,2.8-6.6,2.8
				c-2.8,0-5.1-1-6.9-3c-1.7-2-2.6-5.6-2.6-10.8c0-5.1,1-8.7,2.9-11C1510.8,675.5,1513,674.6,1515.8,674.6z M1515.8,678.9
				c-0.7,0-1.3,0.2-1.8,0.6c-0.5,0.4-0.9,1.1-1.2,2.1c-0.4,1.3-0.6,3.6-0.6,6.7c0,3.2,0.2,5.3,0.5,6.5c0.3,1.2,0.8,2,1.3,2.4
				c0.5,0.4,1.1,0.6,1.8,0.6c0.7,0,1.3-0.2,1.8-0.6c0.5-0.4,0.9-1.1,1.2-2.1c0.4-1.3,0.6-3.6,0.6-6.7c0-3.2-0.2-5.3-0.5-6.5
				c-0.3-1.2-0.8-2-1.3-2.4C1517.1,679.1,1516.5,678.9,1515.8,678.9z"/>
		</g>
		<g>
			<path class="st4" d="M1404.4,805.5l-374,0.3c-7.4,0-13.4-5.8-13.4-13l-0.1-165.8c27.5,8,55.5,22.8,64,29.7
				c33,28.2,44,91,87.9,100.4c40.8,9.4,83.2-15.7,127.1-4.8C1333.8,760.3,1378.6,773,1404.4,805.5z"/>
		</g>
		<g>
			<path class="st5" d="M1581.2,482.5l0.1,169.1c-6.2,1.2-13,1.7-20.2,1.5c-36.1-1-60.6-16.9-86.1-35.7
				c-13.3-9.8-26.9-20.4-42.6-30.1c-44-26.6-87.9-31.3-138.1-25c-48.6,6.3-87.9,14.2-127.1-23.5c-22.6-22.6-28.6-45.6-26.8-69
				l427.4-0.3C1575.2,469.5,1581.2,475.3,1581.2,482.5z"/>
		</g>
		<g>
			<path class="st6" d="M1581.2,556.4l0.2,236c0,7.2-6,13-13.4,13l-76.7,0.1c-26.7-26.4-43.2-63-43.2-103.5
				c0-31.4,9.9-60.6,26.8-84.4C1499,583.4,1537.3,560.2,1581.2,556.4z"/>
		</g>
		<g>
			<rect x="1300.2" y="720.1" class="st3" width="236.8" height="29.5"/>
		</g>
		<g>
			<path class="st3" d="M1076.4,605.5l-6.1,0l0-21.1c-2.2,1.9-4.8,3.3-7.8,4.2l0-5.1c1.6-0.5,3.3-1.4,5.2-2.7
				c1.9-1.3,3.1-2.9,3.8-4.7l4.9,0L1076.4,605.5z"/>
			<path class="st3" d="M1106,600.3l0,5.2l-21.3,0c0.2-2,0.9-3.8,2.1-5.6c1.2-1.8,3.4-4.1,6.8-7c2.7-2.4,4.4-3.9,5-4.8
				c0.8-1.2,1.3-2.3,1.2-3.4c0-1.2-0.4-2.2-1.1-2.9c-0.7-0.7-1.7-1-3-1c-1.3,0-2.3,0.4-3,1.1c-0.7,0.7-1.2,1.9-1.3,3.5l-6-0.6
				c0.4-3.1,1.5-5.3,3.4-6.6c1.9-1.3,4.3-2,7.1-2c3.1,0,5.6,0.8,7.4,2.3c1.8,1.6,2.7,3.5,2.7,5.8c0,1.3-0.3,2.6-0.8,3.8
				c-0.5,1.2-1.3,2.4-2.4,3.7c-0.7,0.9-2.1,2.1-4,3.7c-1.9,1.6-3.1,2.7-3.6,3.2c-0.5,0.5-0.9,1-1.2,1.6L1106,600.3z"/>
			<path class="st3" d="M1122.2,597.7l5.9-0.7c0.2,1.4,0.7,2.4,1.5,3.2c0.8,0.7,1.8,1.1,3,1.1c1.3,0,2.3-0.4,3.2-1.3
				c0.9-0.9,1.3-2.1,1.3-3.5c0-1.4-0.4-2.5-1.2-3.3c-0.8-0.8-1.8-1.2-3-1.2c-0.8,0-1.7,0.1-2.8,0.4l0.7-4.6c1.6,0,2.9-0.3,3.8-1
				s1.3-1.6,1.3-2.8c0-1-0.3-1.8-1-2.4c-0.6-0.6-1.5-0.9-2.5-0.9c-1,0-1.9,0.3-2.7,1c-0.7,0.7-1.2,1.6-1.3,2.9l-5.6-0.9
				c0.4-1.8,1-3.2,1.8-4.2c0.8-1.1,1.9-1.9,3.3-2.5c1.4-0.6,3-0.9,4.7-0.9c3,0,5.4,0.9,7.2,2.6c1.5,1.4,2.2,3.1,2.2,4.9
				c0,2.6-1.5,4.6-4.6,6.1c1.8,0.4,3.3,1.2,4.4,2.4c1.1,1.2,1.6,2.8,1.6,4.5c0,2.6-1,4.7-3,6.6c-2,1.8-4.6,2.7-7.6,2.7
				c-2.9,0-5.2-0.8-7.1-2.3C1123.6,602.2,1122.5,600.2,1122.2,597.7z"/>
			<path class="st3" d="M1158.9,605.5l0-5.9l-13,0l0-4.9l13.7-18.6l5.1,0l0,18.5l3.9,0l0,4.9l-3.9,0l0,5.9L1158.9,605.5z
				 M1158.9,594.7l0-10l-7.3,10L1158.9,594.7z"/>
			<path class="st3" d="M1171.7,597.9l6-0.6c0.2,1.3,0.7,2.3,1.5,3c0.8,0.7,1.8,1.1,2.9,1.1c1.3,0,2.3-0.5,3.2-1.4
				c0.9-0.9,1.3-2.4,1.3-4.3c0-1.8-0.4-3.1-1.3-4s-2-1.3-3.4-1.3c-1.7,0-3.3,0.7-4.7,2.1l-4.9-0.7l3.1-15.2l16,0l0,5.2l-11.4,0
				l-0.9,5c1.4-0.6,2.7-0.9,4.1-0.9c2.7,0,5,0.9,6.8,2.7c1.9,1.8,2.8,4.1,2.8,7c0,2.4-0.8,4.5-2.3,6.4c-2.1,2.6-4.9,3.9-8.6,3.9
				c-2.9,0-5.3-0.7-7.1-2.2C1173.1,602.3,1172,600.4,1171.7,597.9z"/>
			<path class="st3" d="M1216.7,583.4l-5.9,0.6c-0.1-1.1-0.5-1.9-1.1-2.5c-0.6-0.5-1.4-0.8-2.4-0.8c-1.3,0-2.4,0.5-3.2,1.6
				s-1.4,3.3-1.7,6.6c1.5-1.6,3.4-2.5,5.6-2.5c2.5,0,4.7,0.9,6.5,2.7c1.8,1.8,2.7,4.1,2.7,6.9c0,3-0.9,5.4-2.8,7.2
				c-1.9,1.8-4.3,2.7-7.3,2.7c-3.2,0-5.8-1.1-7.9-3.4s-3.1-6-3.1-11.3c0-5.4,1.1-9.2,3.2-11.6c2.1-2.4,4.9-3.5,8.4-3.6
				c2.4,0,4.4,0.6,6,1.9C1215.3,579.2,1216.3,581,1216.7,583.4z M1203,595.6c0,1.8,0.5,3.2,1.4,4.2c0.9,1,1.9,1.5,3.1,1.5
				c1.1,0,2.1-0.4,2.8-1.2c0.7-0.8,1.1-2.1,1.1-4c0-1.9-0.4-3.3-1.2-4.2c-0.8-0.9-1.8-1.3-3-1.3c-1.2,0-2.2,0.4-3,1.3
				S1203,593.9,1203,595.6z"/>
			<path class="st3" d="M1220.8,581.8l0-5.2l20.8,0l0,4.1c-1.7,1.6-3.5,3.8-5.2,6.7c-1.8,2.9-3.1,6-4,9.3c-0.9,3.3-1.4,6.2-1.4,8.8
				l-5.9,0c0.1-4,1-8.2,2.7-12.4c1.7-4.2,4-8,6.8-11.3L1220.8,581.8z"/>
			<path class="st3" d="M1262.9,589.6c-1.6-0.6-2.7-1.4-3.4-2.5c-0.7-1.1-1.1-2.2-1.1-3.5c0-2.2,0.8-4,2.5-5.4c1.6-1.4,4-2.1,7-2.1
				c3,0,5.3,0.7,7,2.1c1.7,1.4,2.5,3.2,2.5,5.4c0,1.4-0.4,2.6-1.1,3.6c-0.8,1.1-1.8,1.9-3.2,2.4c1.8,0.6,3.1,1.6,4,2.8
				c0.9,1.2,1.4,2.7,1.4,4.3c0,2.7-0.9,4.9-2.8,6.6c-1.9,1.7-4.3,2.5-7.4,2.5c-2.9,0-5.3-0.7-7.2-2.1c-2.3-1.6-3.4-3.9-3.4-6.8
				c0-1.6,0.4-3,1.3-4.4C1259.7,591.4,1261,590.3,1262.9,589.6z M1263.6,596.5c0,1.5,0.4,2.7,1.3,3.6c0.9,0.9,1.9,1.3,3.2,1.3
				c1.3,0,2.3-0.4,3.1-1.2c0.8-0.8,1.2-2,1.2-3.6c0-1.4-0.4-2.5-1.3-3.3c-0.8-0.8-1.9-1.2-3.2-1.2c-1.5,0-2.6,0.5-3.3,1.4
				C1263.9,594.4,1263.6,595.4,1263.6,596.5z M1264.1,584c0,1.1,0.3,2,1,2.6c0.7,0.6,1.6,0.9,2.7,0.9c1.2,0,2.1-0.3,2.8-0.9
				c0.7-0.6,1-1.5,1-2.6c0-1-0.3-1.9-1-2.5s-1.6-0.9-2.7-0.9c-1.2,0-2.1,0.3-2.8,1C1264.5,582.1,1264.1,582.9,1264.1,584z"/>
			<path class="st3" d="M1282.4,598.6l5.9-0.6c0.1,1.1,0.5,1.9,1.1,2.4s1.4,0.8,2.4,0.8c1.3,0,2.3-0.5,3.2-1.6
				c0.9-1.1,1.4-3.3,1.7-6.6c-1.5,1.6-3.4,2.5-5.7,2.5c-2.5,0-4.6-0.9-6.4-2.7c-1.8-1.8-2.7-4.1-2.7-6.9c0-3,0.9-5.4,2.9-7.2
				c1.9-1.8,4.3-2.7,7.3-2.7c3.2,0,5.8,1.1,7.9,3.4c2.1,2.3,3.1,6.1,3.1,11.3c0,5.3-1.1,9.2-3.2,11.6c-2.1,2.4-4.9,3.5-8.4,3.6
				c-2.5,0-4.5-0.6-6-1.8C1283.8,602.9,1282.8,601,1282.4,598.6z M1296.1,586.4c0-1.8-0.5-3.2-1.4-4.2c-0.9-1-1.9-1.5-3.1-1.5
				c-1.1,0-2.1,0.4-2.8,1.2c-0.7,0.8-1.1,2.2-1.1,4c0,1.9,0.4,3.3,1.2,4.2s1.8,1.3,3,1.3c1.2,0,2.1-0.4,2.9-1.3
				C1295.7,589.3,1296.1,588,1296.1,586.4z"/>
			<path class="st3" d="M1317.1,576c3.1,0,5.5,1,7.2,3c2.1,2.4,3.1,6.4,3.1,11.9c0,5.5-1,9.5-3.1,11.9c-1.7,2-4.1,3-7.2,3
				c-3.1,0-5.6-1.1-7.5-3.3c-1.9-2.2-2.8-6.1-2.8-11.7c0-5.5,1-9.5,3.1-11.9C1311.6,577,1314,576,1317.1,576z M1317.1,580.7
				c-0.7,0-1.4,0.2-2,0.6c-0.6,0.4-1,1.2-1.3,2.3c-0.4,1.4-0.6,3.9-0.6,7.3c0,3.4,0.2,5.8,0.6,7.1c0.4,1.3,0.8,2.1,1.4,2.6
				c0.6,0.4,1.2,0.6,2,0.6s1.4-0.2,2-0.6c0.6-0.4,1-1.2,1.3-2.3c0.4-1.4,0.6-3.9,0.6-7.3c0-3.4-0.2-5.8-0.6-7.1
				c-0.4-1.3-0.8-2.1-1.4-2.6C1318.5,580.9,1317.8,580.7,1317.1,580.7z"/>
			<path class="st3" d="M1354,576c3.1,0,5.5,1,7.2,3c2.1,2.4,3.1,6.4,3.1,11.9c0,5.5-1,9.5-3.1,11.9c-1.7,2-4.1,3-7.2,3
				c-3.1,0-5.6-1.1-7.5-3.3s-2.8-6.1-2.8-11.7c0-5.5,1-9.5,3.1-11.9C1348.5,577,1350.9,576,1354,576z M1354,580.6
				c-0.7,0-1.4,0.2-2,0.6s-1,1.2-1.3,2.3c-0.4,1.4-0.6,3.9-0.6,7.3c0,3.4,0.2,5.8,0.6,7.1c0.4,1.3,0.8,2.1,1.4,2.6s1.2,0.6,2,0.6
				c0.7,0,1.4-0.2,2-0.6c0.6-0.4,1-1.2,1.3-2.3c0.4-1.4,0.6-3.9,0.6-7.3c0-3.4-0.2-5.8-0.6-7.1c-0.4-1.3-0.8-2.1-1.4-2.6
				C1355.4,580.9,1354.7,580.6,1354,580.6z"/>
			<path class="st3" d="M1378.6,576c3.1,0,5.5,1,7.2,3c2.1,2.4,3.1,6.4,3.1,11.9c0,5.5-1,9.5-3.1,11.9c-1.7,2-4.1,3-7.2,3
				c-3.1,0-5.6-1.1-7.5-3.3c-1.9-2.2-2.8-6.1-2.8-11.7c0-5.5,1-9.5,3.1-11.9C1373.1,577,1375.5,576,1378.6,576z M1378.6,580.6
				c-0.7,0-1.4,0.2-2,0.6c-0.6,0.4-1,1.2-1.3,2.3c-0.4,1.4-0.6,3.9-0.6,7.3c0,3.4,0.2,5.8,0.6,7.1c0.4,1.3,0.8,2.1,1.4,2.6
				c0.6,0.4,1.2,0.6,2,0.6c0.7,0,1.4-0.2,2-0.6c0.6-0.4,1-1.2,1.3-2.3c0.4-1.4,0.6-3.9,0.6-7.3c0-3.4-0.2-5.8-0.6-7.1
				c-0.4-1.3-0.8-2.1-1.4-2.6S1379.3,580.6,1378.6,580.6z"/>
			<path class="st3" d="M1396.3,589.5l-3.3-2.3c1-1.1,2.1-2.1,3.2-3.1c0.4-0.4,0.7-0.7,0.8-0.8c-0.4-0.1-1.4-0.3-3.1-0.7
				c-1.2-0.3-2-0.5-2.4-0.6l1.3-3.5c1.9,0.7,3.6,1.5,5.1,2.3c-0.3-2.2-0.5-3.9-0.5-5.3l3.8,0c0,1-0.2,2.7-0.6,5.3
				c0.3-0.1,0.9-0.4,1.9-0.8c1.3-0.5,2.5-1,3.6-1.4l1.1,3.6c-1.6,0.3-3.4,0.7-5.5,1l2.6,2.7c0.5,0.5,0.9,1,1.2,1.3l-3.3,2l-2.9-4.4
				C1398.5,586.4,1397.5,587.9,1396.3,589.5z"/>
			<path class="st3" d="M1413.5,589.5l-3.3-2.3c1-1.1,2.1-2.1,3.2-3.1c0.4-0.4,0.7-0.7,0.8-0.8c-0.4-0.1-1.4-0.3-3.1-0.7
				c-1.2-0.3-2-0.5-2.4-0.6l1.3-3.5c1.9,0.7,3.6,1.5,5.1,2.3c-0.3-2.2-0.5-3.9-0.5-5.3l3.8,0c0,1-0.2,2.7-0.6,5.3
				c0.3-0.1,0.9-0.4,1.9-0.8c1.3-0.5,2.5-1,3.6-1.4l1.1,3.6c-1.6,0.3-3.4,0.7-5.5,1l2.6,2.7c0.5,0.5,0.9,1,1.2,1.3l-3.3,2l-2.9-4.4
				C1415.7,586.4,1414.7,587.9,1413.5,589.5z"/>
			<path class="st3" d="M1430.8,589.5l-3.3-2.3c1-1.1,2.1-2.1,3.2-3.1c0.4-0.4,0.7-0.7,0.8-0.8c-0.4-0.1-1.4-0.3-3.1-0.7
				c-1.2-0.3-2-0.5-2.4-0.6l1.3-3.5c1.9,0.7,3.6,1.5,5.1,2.3c-0.3-2.2-0.5-3.9-0.5-5.3l3.8,0c0,1-0.2,2.8-0.6,5.3
				c0.3-0.1,0.9-0.4,1.9-0.8c1.3-0.5,2.5-1,3.6-1.4l1.1,3.6c-1.6,0.3-3.4,0.7-5.5,1l2.6,2.7c0.5,0.5,0.9,1,1.2,1.3l-3.3,2l-2.9-4.4
				C1432.9,586.3,1431.9,587.9,1430.8,589.5z"/>
			<path class="st3" d="M1448,589.5l-3.3-2.3c1-1.1,2.1-2.1,3.2-3.1c0.4-0.4,0.7-0.7,0.8-0.8c-0.4-0.1-1.4-0.3-3.1-0.7
				c-1.2-0.3-2-0.5-2.4-0.6l1.3-3.5c1.9,0.7,3.6,1.5,5.1,2.3c-0.3-2.2-0.5-3.9-0.5-5.3l3.8,0c0,1-0.2,2.7-0.6,5.3
				c0.3-0.1,0.9-0.4,1.9-0.8c1.3-0.5,2.5-1,3.6-1.4l1.1,3.6c-1.6,0.3-3.4,0.7-5.5,1l2.6,2.7c0.5,0.5,0.9,1,1.2,1.3l-3.3,2l-2.9-4.4
				C1450.1,586.3,1449.1,587.9,1448,589.5z"/>
		</g>
	</g>
	<g>
		<g>
			<path class="st7" d="M1071.7,303.5v311.7c0,7.2-6,13.1-13.5,13.1H517.5c-7.4,0-13.5-5.9-13.5-13.1V303.5c0-7.2,6-13.1,13.5-13.1
				h540.8C1065.7,290.5,1071.7,296.3,1071.7,303.5z"/>
		</g>
		<g>
			<path class="st3" d="M960.2,496.7c2.8,0,5.1,0.9,6.7,2.8c1.9,2.2,2.9,5.9,2.9,11c0,5.1-1,8.8-2.9,11.1c-1.6,1.8-3.8,2.8-6.7,2.8
				c-2.9,0-5.2-1-6.9-3c-1.8-2-2.6-5.6-2.6-10.8c0-5.1,1-8.8,2.9-11C955.2,497.6,957.4,496.7,960.2,496.7z M960.2,501
				c-0.7,0-1.3,0.2-1.8,0.6s-0.9,1.1-1.2,2.2c-0.4,1.3-0.6,3.6-0.6,6.8s0.2,5.4,0.5,6.6c0.3,1.2,0.8,2,1.3,2.4
				c0.5,0.4,1.1,0.6,1.8,0.6c0.7,0,1.3-0.2,1.8-0.6c0.5-0.4,0.9-1.1,1.2-2.2c0.4-1.3,0.6-3.6,0.6-6.8s-0.2-5.4-0.5-6.6
				c-0.3-1.2-0.8-2-1.3-2.4C961.5,501.2,960.9,501,960.2,501z"/>
			<path class="st3" d="M983.1,496.7c2.8,0,5.1,0.9,6.7,2.8c1.9,2.2,2.9,5.9,2.9,11c0,5.1-1,8.8-2.9,11.1c-1.6,1.8-3.8,2.8-6.7,2.8
				c-2.9,0-5.2-1-6.9-3c-1.8-2-2.6-5.6-2.6-10.8c0-5.1,1-8.8,2.9-11C978,497.6,980.2,496.7,983.1,496.7z M983.1,501
				c-0.7,0-1.3,0.2-1.8,0.6s-0.9,1.1-1.2,2.2c-0.4,1.3-0.6,3.6-0.6,6.8s0.2,5.4,0.5,6.6c0.3,1.2,0.8,2,1.3,2.4
				c0.5,0.4,1.1,0.6,1.8,0.6c0.7,0,1.3-0.2,1.8-0.6c0.5-0.4,0.9-1.1,1.2-2.2c0.4-1.3,0.6-3.6,0.6-6.8s-0.2-5.4-0.5-6.6
				c-0.3-1.2-0.8-2-1.3-2.4C984.3,501.2,983.7,501,983.1,501z"/>
			<path class="st3" d="M1005.9,496.7c2.8,0,5.1,0.9,6.7,2.8c1.9,2.2,2.9,5.9,2.9,11c0,5.1-1,8.8-2.9,11.1c-1.6,1.8-3.8,2.8-6.7,2.8
				c-2.9,0-5.2-1-6.9-3c-1.8-2-2.6-5.6-2.6-10.8c0-5.1,1-8.8,2.9-11C1000.8,497.6,1003,496.7,1005.9,496.7z M1005.9,501
				c-0.7,0-1.3,0.2-1.8,0.6s-0.9,1.1-1.2,2.2c-0.4,1.3-0.6,3.6-0.6,6.8s0.2,5.4,0.5,6.6c0.3,1.2,0.8,2,1.3,2.4
				c0.5,0.4,1.1,0.6,1.8,0.6c0.7,0,1.3-0.2,1.8-0.6c0.5-0.4,0.9-1.1,1.2-2.2c0.4-1.3,0.6-3.6,0.6-6.8s-0.2-5.4-0.5-6.6
				c-0.3-1.2-0.8-2-1.3-2.4C1007.2,501.2,1006.6,501,1005.9,501z"/>
		</g>
		<g>
			<path class="st8" d="M1071.7,377.8v237.4c0,7.2-6,13.1-13.5,13.1h-77.1c-26.8-26.6-43.4-63.5-43.4-104.2c0-31.6,10-60.9,27-84.9
				C989.1,405,1027.6,381.7,1071.7,377.8z"/>
		</g>
		<g>
			<rect x="722.6" y="353" class="st2" width="307.6" height="72.4"/>
		</g>
		<g>
			<path class="st6" d="M570.2,562.7h-6.1v-21.2c-2.2,1.9-4.9,3.3-7.9,4.3v-5.1c1.6-0.5,3.3-1.4,5.2-2.7c1.9-1.3,3.1-2.9,3.8-4.7h5
				V562.7z"/>
			<path class="st6" d="M600,557.5v5.2h-21.4c0.2-2,0.9-3.9,2.1-5.6s3.4-4.1,6.9-7c2.8-2.4,4.4-4,5.1-4.8c0.8-1.2,1.3-2.3,1.3-3.4
				c0-1.3-0.4-2.2-1.1-2.9c-0.7-0.7-1.7-1-3-1c-1.3,0-2.3,0.4-3,1.1c-0.8,0.7-1.2,1.9-1.3,3.5l-6.1-0.6c0.4-3.1,1.5-5.3,3.4-6.7
				c1.9-1.3,4.3-2,7.2-2c3.1,0,5.6,0.8,7.4,2.3c1.8,1.6,2.7,3.5,2.7,5.8c0,1.3-0.3,2.6-0.8,3.8c-0.5,1.2-1.3,2.4-2.4,3.8
				c-0.7,0.9-2.1,2.1-4,3.7s-3.1,2.7-3.7,3.2c-0.5,0.5-0.9,1.1-1.2,1.6H600z"/>
			<path class="st6" d="M616.2,554.9l5.9-0.7c0.2,1.4,0.7,2.5,1.5,3.2c0.8,0.7,1.8,1.1,3,1.1c1.3,0,2.3-0.4,3.2-1.3
				c0.9-0.9,1.3-2.1,1.3-3.6c0-1.4-0.4-2.5-1.2-3.4c-0.8-0.8-1.8-1.2-3-1.2c-0.8,0-1.7,0.1-2.8,0.4l0.7-4.6c1.7,0,2.9-0.3,3.8-1
				c0.9-0.7,1.3-1.6,1.3-2.8c0-1-0.3-1.8-1-2.4c-0.6-0.6-1.5-0.9-2.5-0.9c-1,0-1.9,0.3-2.7,1c-0.7,0.7-1.2,1.6-1.3,2.9l-5.6-0.9
				c0.4-1.8,1-3.2,1.8-4.3c0.8-1.1,1.9-1.9,3.3-2.5s3-0.9,4.7-0.9c3,0,5.4,0.9,7.2,2.6c1.5,1.4,2.2,3.1,2.2,4.9
				c0,2.6-1.5,4.6-4.6,6.2c1.8,0.4,3.3,1.2,4.4,2.4c1.1,1.3,1.6,2.8,1.6,4.5c0,2.6-1,4.8-3.1,6.6c-2,1.8-4.6,2.7-7.6,2.7
				c-2.9,0-5.3-0.8-7.2-2.3C617.6,559.4,616.5,557.4,616.2,554.9z"/>
			<path class="st6" d="M653.2,562.7v-5.9h-13v-4.9l13.8-18.7h5.1v18.6h4v5h-4v5.9H653.2z M653.2,551.8v-10l-7.3,10H653.2z"/>
			<path class="st6" d="M666,555.1l6.1-0.6c0.2,1.3,0.7,2.3,1.5,3c0.9,0.7,1.8,1.1,3,1.1c1.3,0,2.4-0.5,3.2-1.4
				c0.9-1,1.3-2.4,1.3-4.3c0-1.8-0.4-3.2-1.3-4.1c-0.9-0.9-2-1.4-3.4-1.4c-1.8,0-3.3,0.7-4.7,2.1l-5-0.7l3.1-15.3H686v5.3h-11.5
				l-1,5c1.4-0.6,2.8-0.9,4.2-0.9c2.7,0,5,0.9,6.9,2.7c1.9,1.8,2.8,4.2,2.8,7.1c0,2.4-0.8,4.6-2.3,6.5c-2.1,2.6-4.9,3.9-8.6,3.9
				c-2.9,0-5.3-0.7-7.2-2.2C667.5,559.6,666.4,557.6,666,555.1z"/>
			<path class="st6" d="M711.4,540.5l-5.9,0.6c-0.1-1.1-0.5-2-1.1-2.5c-0.6-0.5-1.4-0.8-2.4-0.8c-1.3,0-2.4,0.5-3.3,1.6
				c-0.9,1.1-1.5,3.3-1.7,6.7c1.5-1.7,3.4-2.5,5.7-2.5c2.5,0,4.7,0.9,6.6,2.7c1.8,1.8,2.7,4.1,2.7,6.9c0,3-1,5.4-2.9,7.2
				c-1.9,1.8-4.4,2.7-7.4,2.7c-3.2,0-5.9-1.2-7.9-3.5c-2.1-2.3-3.1-6.1-3.1-11.3c0-5.4,1.1-9.3,3.2-11.6s5-3.6,8.4-3.6
				c2.4,0,4.4,0.6,6,1.9C709.9,536.3,710.9,538.1,711.4,540.5z M697.5,552.8c0,1.8,0.5,3.2,1.4,4.2c0.9,1,2,1.5,3.1,1.5
				c1.1,0,2.1-0.4,2.8-1.2c0.8-0.8,1.1-2.2,1.1-4c0-1.9-0.4-3.3-1.2-4.2s-1.8-1.3-3-1.3c-1.2,0-2.2,0.4-3,1.3
				C697.9,549.9,697.5,551.1,697.5,552.8z"/>
			<path class="st6" d="M715.4,538.9v-5.2h20.9v4.1c-1.7,1.6-3.5,3.8-5.3,6.7c-1.8,2.9-3.1,6-4.1,9.3c-0.9,3.3-1.4,6.2-1.4,8.8h-5.9
				c0.1-4.1,1-8.2,2.7-12.4c1.7-4.2,4-8,6.9-11.3H715.4z"/>
			<path class="st6" d="M757.8,546.8c-1.6-0.6-2.7-1.5-3.4-2.5c-0.7-1.1-1.1-2.3-1.1-3.5c0-2.2,0.8-4,2.5-5.4c1.7-1.4,4-2.1,7.1-2.1
				c3,0,5.4,0.7,7,2.1c1.7,1.4,2.5,3.2,2.5,5.4c0,1.4-0.4,2.6-1.2,3.6c-0.8,1.1-1.8,1.9-3.2,2.4c1.8,0.7,3.1,1.6,4,2.9
				c0.9,1.3,1.4,2.7,1.4,4.3c0,2.7-0.9,4.9-2.8,6.6c-1.9,1.7-4.4,2.5-7.5,2.5c-2.9,0-5.3-0.7-7.2-2.1c-2.3-1.7-3.4-3.9-3.4-6.8
				c0-1.6,0.4-3,1.3-4.4C754.6,548.6,755.9,547.6,757.8,546.8z M758.5,553.8c0,1.5,0.4,2.8,1.3,3.6c0.9,0.9,1.9,1.3,3.2,1.3
				c1.3,0,2.3-0.4,3.1-1.3s1.2-2,1.2-3.6c0-1.4-0.4-2.5-1.3-3.3c-0.8-0.8-1.9-1.3-3.2-1.3c-1.5,0-2.6,0.5-3.3,1.4
				S758.5,552.6,758.5,553.8z M759,541.2c0,1.1,0.3,2,1,2.6c0.7,0.6,1.6,0.9,2.7,0.9c1.2,0,2.1-0.3,2.8-1c0.7-0.6,1-1.5,1-2.6
				c0-1.1-0.3-1.9-1-2.5s-1.6-1-2.7-1c-1.2,0-2.1,0.3-2.8,1C759.4,539.3,759,540.1,759,541.2z"/>
			<path class="st6" d="M777.4,555.9l5.9-0.6c0.1,1.1,0.5,1.9,1.1,2.5c0.6,0.5,1.4,0.8,2.4,0.8c1.3,0,2.3-0.5,3.2-1.6
				c0.9-1.1,1.4-3.3,1.7-6.7c-1.5,1.6-3.5,2.5-5.8,2.5c-2.5,0-4.7-0.9-6.5-2.7c-1.8-1.8-2.7-4.1-2.7-7c0-3,1-5.4,2.9-7.2
				c1.9-1.8,4.4-2.7,7.3-2.7c3.2,0,5.9,1.2,8,3.5c2.1,2.3,3.1,6.1,3.1,11.4c0,5.4-1.1,9.2-3.2,11.6s-5,3.6-8.4,3.6
				c-2.5,0-4.5-0.6-6-1.8C778.8,560.2,777.8,558.3,777.4,555.9z M791.2,543.6c0-1.8-0.5-3.2-1.4-4.2c-0.9-1-2-1.5-3.1-1.5
				c-1.1,0-2.1,0.4-2.8,1.2s-1.1,2.2-1.1,4c0,1.9,0.4,3.3,1.2,4.2c0.8,0.9,1.8,1.3,3,1.3c1.2,0,2.2-0.4,3-1.3
				C790.8,546.5,791.2,545.3,791.2,543.6z"/>
			<path class="st6" d="M812.3,533.2c3.1,0,5.5,1,7.2,3c2.1,2.4,3.1,6.4,3.1,12c0,5.6-1,9.6-3.1,12c-1.7,2-4.1,3-7.2,3
				c-3.1,0-5.6-1.1-7.5-3.3c-1.9-2.2-2.8-6.1-2.8-11.8c0-5.5,1-9.5,3.1-11.9C806.9,534.2,809.3,533.2,812.3,533.2z M812.3,537.9
				c-0.7,0-1.4,0.2-2,0.7c-0.6,0.4-1,1.2-1.3,2.3c-0.4,1.5-0.6,3.9-0.6,7.4s0.2,5.8,0.6,7.1c0.4,1.3,0.9,2.1,1.4,2.6
				c0.6,0.4,1.2,0.6,2,0.6s1.4-0.2,2-0.7c0.6-0.4,1-1.2,1.3-2.3c0.4-1.4,0.6-3.9,0.6-7.3s-0.2-5.8-0.6-7.1c-0.4-1.3-0.9-2.2-1.4-2.6
				C813.7,538.1,813.1,537.9,812.3,537.9z"/>
			<path class="st6" d="M849.5,533.2c3.1,0,5.5,1,7.2,3c2.1,2.4,3.1,6.4,3.1,12c0,5.6-1,9.6-3.1,12c-1.7,2-4.1,3-7.2,3
				c-3.1,0-5.6-1.1-7.5-3.3c-1.9-2.2-2.8-6.1-2.8-11.8c0-5.5,1-9.5,3.1-11.9C844,534.2,846.4,533.2,849.5,533.2z M849.5,537.9
				c-0.7,0-1.4,0.2-2,0.7c-0.6,0.4-1,1.2-1.3,2.3c-0.4,1.5-0.6,3.9-0.6,7.4s0.2,5.8,0.6,7.1c0.4,1.3,0.9,2.1,1.4,2.6
				c0.6,0.4,1.2,0.6,2,0.6s1.4-0.2,2-0.7c0.6-0.4,1-1.2,1.3-2.3c0.4-1.4,0.6-3.9,0.6-7.3s-0.2-5.8-0.6-7.1c-0.4-1.3-0.9-2.2-1.4-2.6
				C850.8,538.1,850.2,537.9,849.5,537.9z"/>
			<path class="st6" d="M874.2,533.2c3.1,0,5.5,1,7.2,3c2.1,2.4,3.1,6.4,3.1,12c0,5.6-1,9.6-3.1,12c-1.7,2-4.1,3-7.2,3
				c-3.1,0-5.6-1.1-7.5-3.3c-1.9-2.2-2.8-6.1-2.8-11.8c0-5.5,1-9.5,3.1-11.9C868.7,534.2,871.1,533.2,874.2,533.2z M874.2,537.9
				c-0.7,0-1.4,0.2-2,0.7c-0.6,0.4-1,1.2-1.3,2.3c-0.4,1.5-0.6,3.9-0.6,7.4s0.2,5.8,0.6,7.1c0.4,1.3,0.9,2.1,1.4,2.6
				c0.6,0.4,1.2,0.6,2,0.6s1.4-0.2,2-0.7c0.6-0.4,1-1.2,1.3-2.3c0.4-1.4,0.6-3.9,0.6-7.3s-0.2-5.8-0.6-7.1c-0.4-1.3-0.9-2.2-1.4-2.6
				C875.6,538.1,874.9,537.9,874.2,537.9z"/>
			<path class="st6" d="M892.1,546.8l-3.3-2.3c1-1.1,2.1-2.1,3.3-3.1c0.4-0.4,0.7-0.7,0.8-0.8c-0.4-0.1-1.4-0.3-3.1-0.7
				c-1.2-0.3-2-0.5-2.4-0.6l1.3-3.5c1.9,0.7,3.6,1.5,5.1,2.3c-0.3-2.2-0.5-4-0.5-5.3h3.9c0,1-0.2,2.8-0.6,5.4
				c0.3-0.1,0.9-0.4,1.9-0.8c1.3-0.5,2.5-1,3.6-1.4l1.2,3.6c-1.6,0.3-3.5,0.7-5.6,1l2.6,2.7c0.5,0.5,0.9,1,1.2,1.3l-3.3,2l-2.9-4.5
				C894.2,543.7,893.2,545.2,892.1,546.8z"/>
			<path class="st6" d="M909.4,546.8l-3.3-2.3c1-1.1,2.1-2.1,3.3-3.1c0.4-0.4,0.7-0.7,0.8-0.8c-0.4-0.1-1.4-0.3-3.1-0.7
				c-1.2-0.3-2-0.5-2.4-0.6l1.3-3.5c1.9,0.7,3.6,1.5,5.1,2.3c-0.3-2.2-0.5-4-0.5-5.3h3.9c0,1-0.2,2.8-0.6,5.4
				c0.3-0.1,0.9-0.4,1.9-0.8c1.3-0.5,2.5-1,3.6-1.4l1.2,3.6c-1.6,0.3-3.5,0.7-5.6,1l2.6,2.7c0.5,0.5,0.9,1,1.2,1.3l-3.3,2l-2.9-4.5
				C911.5,543.7,910.5,545.2,909.4,546.8z"/>
			<path class="st6" d="M926.7,546.8l-3.3-2.3c1-1.1,2.1-2.1,3.3-3.1c0.4-0.4,0.7-0.7,0.8-0.8c-0.4-0.1-1.4-0.3-3.1-0.7
				c-1.2-0.3-2-0.5-2.4-0.6l1.3-3.5c1.9,0.7,3.6,1.5,5.1,2.3c-0.3-2.2-0.5-4-0.5-5.3h3.9c0,1-0.2,2.8-0.6,5.4
				c0.3-0.1,0.9-0.4,1.9-0.8c1.3-0.5,2.5-1,3.6-1.4l1.2,3.6c-1.6,0.3-3.5,0.7-5.6,1l2.6,2.7c0.5,0.5,0.9,1,1.2,1.3l-3.3,2l-2.9-4.5
				C928.8,543.7,927.8,545.2,926.7,546.8z"/>
			<path class="st6" d="M944,546.8l-3.3-2.3c1-1.1,2.1-2.1,3.3-3.1c0.4-0.4,0.7-0.7,0.8-0.8c-0.4-0.1-1.4-0.3-3.1-0.7
				c-1.2-0.3-2-0.5-2.4-0.6l1.3-3.5c1.9,0.7,3.6,1.5,5.1,2.3c-0.3-2.2-0.5-4-0.5-5.3h3.9c0,1-0.2,2.8-0.6,5.4
				c0.3-0.1,0.9-0.4,1.9-0.8c1.3-0.5,2.5-1,3.6-1.4l1.2,3.6c-1.6,0.3-3.5,0.7-5.6,1l2.6,2.7c0.5,0.5,0.9,1,1.2,1.3l-3.3,2l-2.9-4.5
				C946.2,543.7,945.1,545.2,944,546.8z"/>
		</g>
		<g>
			<rect x="552.5" y="459.4" class="st3" width="88.4" height="53.7"/>
		</g>
	</g>
	<g>
		<path class="st1" d="M1138.7,254c0,15.5-23.5,28-52.5,28c-29,0-52.5-12.5-52.5-28c0-0.1,0-0.2,0-0.3h105
			C1138.7,253.8,1138.7,253.9,1138.7,254z"/>
	</g>
	<g>
		<g>
			<path class="st7" d="M1192,1121c0,6.6-5.4,12-12,12H984c-6.6,0-12-5.4-12-12v-28c0-6.6,5.4-12,12-12h196c6.6,0,12,5.4,12,12V1121
				z"/>
		</g>
		<g>
			<path class="st0" d="M1052.2,1120.2v-24.5h7.9c3,0,5,0.1,5.9,0.4c1.4,0.4,2.6,1.2,3.5,2.4c0.9,1.2,1.4,2.8,1.4,4.8
				c0,1.5-0.3,2.8-0.8,3.8c-0.5,1-1.2,1.8-2.1,2.4c-0.8,0.6-1.7,1-2.6,1.2c-1.2,0.2-2.9,0.4-5.1,0.4h-3.2v9.2H1052.2z
				 M1057.1,1099.9v6.9h2.7c1.9,0,3.2-0.1,3.9-0.4c0.7-0.3,1.2-0.7,1.5-1.2c0.4-0.5,0.6-1.2,0.6-1.9c0-0.9-0.3-1.6-0.8-2.2
				c-0.5-0.6-1.2-0.9-2-1.1c-0.6-0.1-1.8-0.2-3.6-0.2H1057.1z"/>
			<path class="st0" d="M1094.5,1120.2h-5.4l-2.1-5.6h-9.8l-2,5.6h-5.2l9.5-24.5h5.2L1094.5,1120.2z M1085.4,1110.5l-3.4-9.1
				l-3.3,9.1H1085.4z"/>
			<path class="st0" d="M1100.4,1120.2v-10.3l-9-14.2h5.8l5.8,9.7l5.6-9.7h5.7l-9,14.2v10.3H1100.4z"/>
		</g>
	</g>
	<g>
		<g>
			<path class="st9" d="M1159.2,989.9h-157.4c-0.9,0-1.7-0.6-1.9-1.5l-52.1-220.5h-50.9c-1.1,0-2-0.9-2-2s0.9-2,2-2h52.5
				c0.9,0,1.7,0.6,1.9,1.5l52.1,220.5h155.9c1.1,0,2,0.9,2,2S1160.3,989.9,1159.2,989.9z"/>
		</g>
		<g>
			<path class="st9" d="M1187.5,937.5H990.4c-1.1,0-2-0.9-2-2s0.9-2,2-2h195.8l46.6-101H965.6c-1.1,0-2-0.9-2-2s0.9-2,2-2h270.3
				c0.7,0,1.3,0.3,1.7,0.9c0.4,0.6,0.4,1.3,0.1,1.9l-48.4,105C1189,937,1188.3,937.5,1187.5,937.5z"/>
		</g>
		<g>
			<path class="st9" d="M1013.9,1054.5c-13,0-23.5-10.6-23.5-23.5c0-13,10.6-23.5,23.5-23.5c13,0,23.5,10.6,23.5,23.5
				C1037.4,1044,1026.9,1054.5,1013.9,1054.5z M1013.9,1011.5c-10.8,0-19.5,8.8-19.5,19.5c0,10.8,8.8,19.5,19.5,19.5
				c10.8,0,19.5-8.8,19.5-19.5C1033.4,1020.2,1024.6,1011.5,1013.9,1011.5z"/>
		</g>
		<g>
			<path class="st9" d="M1156.5,1054.5c-13,0-23.5-10.6-23.5-23.5c0-13,10.6-23.5,23.5-23.5s23.5,10.6,23.5,23.5
				C1180.1,1044,1169.5,1054.5,1156.5,1054.5z M1156.5,1011.5c-10.8,0-19.5,8.8-19.5,19.5c0,10.8,8.8,19.5,19.5,19.5
				s19.5-8.8,19.5-19.5C1176.1,1020.2,1167.3,1011.5,1156.5,1011.5z"/>
		</g>
	</g>
	<g>
		<path class="st10" d="M888.1,1496.1c0.1,0,0.1,0.1,0.1,0.3c0.5,4.3-10.1,50-88.6,67.2c-0.5-0.4-31.4,4.7-49.5,4.5
			c-135.1-1.8-675-4.5-675-4.5l404-291.4l121.2-87.4l23.8-17.1c0,0,67.5-486,243-592.5c31.5-36,45,21,46.5,24c0,0,34.5,114-45,252
			c-10.5,27-9,54,3,82.5s135,160.5,81,331.5h208.5C1161.1,1265.1,1125.1,1371.6,888.1,1496.1z"/>
	</g>
	<g>
		<path class="st10" d="M1570.6,1314.6c0,0-88.9-171.6-171-234c-37.5-28.5-192-115.5-94.5-226.5c-3-1.5,116.9,49.9,177,102
			c22.5,19.5,87,93,87,93s70.5-43.5,115.5-31.5c0-1.5,72-46.5,142.5-22.5c-9-1.5,78-15,129,31.5c3,4.5,183,385.8,255,533.4
			c-1.5,0-690,0-690,0s-265.5-324.9-268.5-381.9c-3-22.5,91.5-121.5,186,43.5C1437.1,1229.1,1536.1,1314.6,1570.6,1314.6z"/>
	</g>
	<g>
		<path class="st5" d="M799.6,1560c-0.5-0.4-11-0.8-29.1-1c-95.5-31-204.9-179-204.9-179s-79.2-98.7-86.5-111.4
			c-0.3-0.5-0.5-0.9-0.5-1.1c46.5-81,129-93,129-93c0.1,0.2,1.4,1.3,1.5,1.5c12.8,37.9,93.3,136.8,154.5,189
			c61.5,52.5,55.5,73.5,55.5,73.5l69,54l0.1,0.3C888.7,1497.2,878.2,1542.9,799.6,1560z"/>
	</g>
	<g>
		<path class="st9" d="M735.7,1529.8c-5.7,0-11.6-1-17.5-3c-16.5-5.5-34.3-18.3-59.4-42.7c-0.8-0.8-0.8-2,0-2.8c0.8-0.8,2-0.8,2.8,0
			c42.5,41.4,72.4,58.6,108.6,31.4c7.6-5.7,15.3-13,23.5-22.3c1.6-1.8,3.2-3.7,4.7-5.5c17.4-21.4,22.4-38.3,15.9-55
			c-6.3-16.5-24.1-33-42.9-50.5c-44.4-28.1-87-81.4-115-121.2c-30.3-43.1-50.4-80.1-50.6-80.4c-0.5-1-0.2-2.2,0.8-2.7
			c1-0.5,2.2-0.2,2.7,0.8c0.8,1.5,80.2,147.2,164.3,200.3c0.1,0.1,0.2,0.1,0.3,0.2c40.4,37.6,67.1,62.5,27.5,111.1
			c-1.5,1.9-3.2,3.8-4.8,5.7c-8.4,9.5-16.3,16.9-24.1,22.8C760,1525.1,748,1529.8,735.7,1529.8z"/>
	</g>
	<g>
		<path class="st0" d="M638.7,1490.3c-0.4,0-0.7,0-1.1,0c-6-0.3-11.5-2.9-15.5-7.3l-71.7-78.8c-4-4.4-6.1-10.2-5.8-16.1
			c0.3-6,2.9-11.5,7.3-15.5l108.6-98.9c9.1-8.3,23.3-7.6,31.6,1.5l71.7,78.8c4,4.4,6.1,10.2,5.8,16.1c-0.3,6-2.9,11.5-7.3,15.5
			l-108.6,98.9C649.6,1488.3,644.3,1490.3,638.7,1490.3z M569.2,1389.2l69.6,76.4L745,1369l-69.6-76.4L569.2,1389.2z M746.1,1370.1
			C746.1,1370.1,746.1,1370.1,746.1,1370.1L746.1,1370.1z"/>
	</g>
	<g>
		<path class="st9" d="M571.6,1390.1c-0.6,0-1.1-0.2-1.5-0.7c-0.7-0.8-0.7-2.1,0.2-2.8l106.5-94.5c0.4-0.4,0.9-0.5,1.5-0.5
			c0.5,0,1,0.3,1.4,0.7l64.5,73.5c0.7,0.8,0.6,2.1-0.2,2.8c-0.8,0.7-2.1,0.6-2.8-0.2l-63.2-72l-105,93.2
			C572.6,1389.9,572.1,1390.1,571.6,1390.1z"/>
	</g>
	<g>
		<path class="st9" d="M670.6,1375.4c0,11.2-9.1,20.2-20.2,20.2s-20.2-9.1-20.2-20.2s9.1-20.2,20.2-20.2S670.6,1364.2,670.6,1375.4z
			"/>
	</g>
	<g>
		<path class="st9" d="M807.9,1502.1c0,11.2-9.1,20.2-20.2,20.2c-6.7,0-12.6-3.2-16.3-8.2c7.7-5.8,15.6-13.3,23.8-22.5
			c1.7-1.9,3.3-3.8,4.8-5.6C804.7,1489.7,807.9,1495.5,807.9,1502.1z"/>
	</g>
	<g>
		<path class="st0" d="M648.1,1383.6c-3.2,0-6.3-1.3-8.7-3.7l-55.5-58.5c-4.6-4.8-4.4-12.4,0.4-17c4.8-4.6,12.4-4.4,17,0.4
			l55.5,58.5c4.6,4.8,4.4,12.4-0.4,17C654.1,1382.5,651.1,1383.6,648.1,1383.6z"/>
	</g>
	<g>
		<path class="st9" d="M660.1,1367.6c-0.5,0-1-0.2-1.4-0.6l-60-61.5c-0.8-0.8-0.8-2.1,0-2.8c0.8-0.8,2.1-0.8,2.8,0l60,61.5
			c0.8,0.8,0.8,2.1,0,2.8C661.1,1367.4,660.6,1367.6,660.1,1367.6z"/>
	</g>
	<g>
		<path class="st9" d="M933.1,1309.1c-0.3,0-0.7-0.1-1-0.3c-1-0.6-1.3-1.8-0.7-2.7c53.8-92.3,34.3-188.2,8.5-252.5
			c-28-69.8-69.4-118.2-69.8-118.7c-0.7-0.8-0.6-2.1,0.2-2.8c0.8-0.7,2.1-0.6,2.8,0.2c0.4,0.5,42.2,49.4,70.5,119.8
			c16.6,41.4,25.5,82,26.2,120.7c0.9,48.4-10.8,94-35,135.3C934.5,1308.7,933.8,1309.1,933.1,1309.1z"/>
	</g>
	<g>
		<path class="st9" d="M1300.6,1267.1c-0.8,0-1.6-0.5-1.9-1.3c-0.4-1,0.1-2.2,1.2-2.6c36.6-13.8,62.5-43.4,67.6-53.8
			c-12-37.3-58.5-69.9-59-70.2c-0.9-0.6-1.1-1.9-0.5-2.8c0.6-0.9,1.9-1.1,2.8-0.5c2,1.4,48.7,34.1,60.8,73c0.1,0.5,0.1,0.9-0.1,1.4
			c-4.4,10.2-31.7,42-70.1,56.6C1301.1,1267.1,1300.8,1267.1,1300.6,1267.1z"/>
	</g>
	<g>
		<path class="st9" d="M1356.1,961.1c-0.1,0-0.2,0-0.3,0c-9.2-1.5-70.4-49-77.4-54.4c-0.9-0.7-1-1.9-0.4-2.8c0.7-0.9,1.9-1,2.8-0.4
			c25,19.5,63.3,48,73.7,52.9c1.3-3.2,5.2-10.2,16.7-27.1c9-13.2,18.6-26.4,21-28.7c0.8-0.8,2-0.8,2.8,0s0.8,2,0,2.8
			c-4.7,4.7-35.3,48.5-37,54.9c0.1,0.4,0.2,0.9,0,1.3C1357.7,960.6,1356.9,961.1,1356.1,961.1z M1357,957.3
			C1357,957.3,1357,957.3,1357,957.3C1357,957.3,1357,957.3,1357,957.3z"/>
	</g>
	<g>
		<path class="st9" d="M1635.1,1126.1c-0.6,0-1.2-0.3-1.6-0.8c-17.7-25.1-151.5-166.3-152.8-167.8c-0.8-0.8-0.7-2.1,0.1-2.8
			c0.8-0.8,2.1-0.7,2.8,0.1c5.5,5.8,135.3,142.9,153.2,168.2c0.6,0.9,0.4,2.2-0.5,2.8C1635.9,1126,1635.5,1126.1,1635.1,1126.1z"/>
	</g>
	<g>
		<path class="st9" d="M1521.1,1562c-0.6,0-1.1-0.2-1.5-0.7c-125.6-149.2-192-245.1-225.5-299.4c-36.5-59-43.1-82.3-43.4-83.3
			c-0.3-1.1,0.3-2.2,1.4-2.5c1.1-0.3,2.2,0.3,2.5,1.4c0.1,0.4,6.9,24.2,43.2,82.7c33.5,54.1,99.7,149.8,224.9,298.4
			c0.7,0.8,0.6,2.1-0.2,2.8C1522,1561.8,1521.5,1562,1521.1,1562z"/>
	</g>
	<g>
		<g>
			<path class="st0" d="M440.7,871.8l-23.6-9.8l185.6-197.9l22.9,9.5L440.7,871.8z M452.9,670.9c8.2-19.9,17.6-33.3,28.1-40.2
				c10.5-6.9,21.4-8,32.5-3.4c11.6,4.8,18.6,13.3,21.2,25.6c2.6,12.3-0.3,28.4-8.6,48.4c-8.2,19.9-17.6,33.3-28.1,40.2
				c-10.5,6.9-21.4,8-32.5,3.4c-11.6-4.8-18.6-13.3-21.2-25.6C441.7,707,444.6,690.9,452.9,670.9z M477.8,680.8
				c-6,14.5-8.8,24.7-8.3,30.7c0.4,4.4,2.2,7.3,5.6,8.7c3.4,1.4,6.8,0.7,10.2-2.2c4.5-4,9.7-13.2,15.7-27.6
				c6-14.5,8.8-24.6,8.4-30.5c-0.3-4.5-2.2-7.5-5.6-8.9c-3.3-1.4-6.7-0.6-10.1,2.2C489,657.2,483.8,666.4,477.8,680.8z M516.3,834.7
				c8.2-19.9,17.6-33.3,28.1-40.2c10.5-6.9,21.4-8,32.8-3.3c11.4,4.7,18.4,13.2,21,25.5c2.6,12.3-0.3,28.4-8.5,48.3
				c-8.3,20-17.7,33.5-28.2,40.4c-10.5,6.9-21.4,8-32.5,3.4c-11.6-4.8-18.6-13.3-21.2-25.6C505.1,870.9,508,854.8,516.3,834.7z
				 M541.2,844.9c-6,14.5-8.7,24.6-8.2,30.5c0.3,4.5,2.2,7.5,5.5,8.8c3.4,1.4,6.8,0.7,10.1-2.2c4.5-3.9,9.8-13.1,15.8-27.6
				c6-14.5,8.8-24.7,8.4-30.6c-0.4-4.4-2.3-7.3-5.7-8.7c-3.4-1.4-6.8-0.7-10.1,2.2C552.4,821.2,547.1,830.4,541.2,844.9z"/>
			<path class="st1" d="M542.2,913.7c-4.6,0-9.3-1-14.1-2.9c-12.2-5-19.7-14.1-22.4-27.1c-2.6-12.6,0.3-29.4,8.7-49.7
				c8.4-20.2,18.1-34,28.9-41.1c11-7.2,22.7-8.4,34.6-3.5c12,5,19.5,14,22.1,27c2.6,12.7-0.3,29.3-8.6,49.5
				c-8.4,20.3-18.1,34.2-28.9,41.3C555.9,911.5,549.1,913.7,542.2,913.7z M516.3,834.7l1.8,0.8c-8.1,19.5-10.9,35.5-8.5,47.3
				c2.4,11.7,9,19.6,20,24.2c10.6,4.4,20.7,3.3,30.7-3.2c10.1-6.6,19.4-19.9,27.4-39.5c8-19.4,10.9-35.3,8.4-47.2
				c-2.4-11.7-8.9-19.6-19.8-24.1c-10.8-4.5-20.9-3.4-30.9,3.1c-10.1,6.6-19.3,19.9-27.4,39.3L516.3,834.7z M541.7,886.9
				c-1.6,0-2.9-0.4-4.1-0.8c-4.1-1.7-6.3-5.2-6.7-10.5c-0.5-6.2,2.2-16.5,8.4-31.4l1.8,0.8l-1.8-0.8c6.2-14.9,11.5-24.1,16.3-28.3
				c4.9-4.2,9.3-3.7,12.2-2.6c4.1,1.7,6.4,5.2,6.9,10.4c0.4,6.4-2.4,16.7-8.6,31.5c-6.2,14.9-11.5,24.1-16.3,28.3
				C546.9,886.1,544.1,886.9,541.7,886.9z M563.7,816.4c-1.8,0-3.6,0.8-5.4,2.4c-4.3,3.7-9.4,12.7-15.3,26.8l0,0
				c-5.8,14.1-8.6,24-8.1,29.6c0.3,3.8,1.7,6.1,4.3,7.2c2.7,1.1,5.2,0.5,8-1.9c4.3-3.7,9.4-12.7,15.3-26.8
				c5.8-14.1,8.6-24.1,8.3-29.7c-0.3-3.6-1.7-5.9-4.4-7C565.4,816.6,564.5,816.4,563.7,816.4z M440.7,873.8c-0.3,0-0.5,0-0.8-0.2
				l-23.6-9.8c-0.6-0.3-1.1-0.8-1.2-1.4c-0.1-0.6,0-1.3,0.5-1.8l185.6-197.9c0.6-0.6,1.5-0.8,2.2-0.5l22.9,9.5
				c0.6,0.3,1.1,0.8,1.2,1.4c0.1,0.6,0,1.3-0.5,1.8L442.1,873.2C441.7,873.6,441.2,873.8,440.7,873.8z M420.5,861.3l19.6,8.1
				l182-195.1l-18.9-7.8L420.5,861.3z M478.8,749.6c-4.6,0-9.3-1-14.1-2.9c-12.2-5-19.7-14.1-22.4-27c-2.7-12.6,0.3-29.3,8.7-49.6
				l0,0c8.4-20.2,18.1-34,28.9-41.1c11-7.2,22.6-8.5,34.4-3.6c12.2,5,19.7,14.1,22.4,27c2.7,12.6-0.3,29.3-8.7,49.6
				c-8.4,20.2-18.1,34-28.9,41.1C492.5,747.4,485.7,749.6,478.8,749.6z M454.7,671.6c-8.1,19.5-10.9,35.4-8.4,47.2
				c2.5,11.7,9,19.6,20,24.1c10.6,4.4,20.7,3.3,30.7-3.2c10.1-6.6,19.3-19.9,27.4-39.3c8.1-19.5,10.9-35.4,8.4-47.2
				c-2.5-11.7-9-19.6-20-24.1c-10.6-4.4-20.7-3.3-30.7,3.2C472,639,462.7,652.2,454.7,671.6L454.7,671.6z M478.4,722.9
				c-1.4,0-2.8-0.3-4.1-0.9c-4.1-1.7-6.3-5.2-6.8-10.4c-0.5-6.4,2.3-16.7,8.5-31.6l0,0c6.2-14.9,11.5-24.1,16.3-28.3
				c4-3.4,8.1-4.2,12.2-2.6c4.1,1.7,6.4,5.3,6.8,10.6c0.4,6.2-2.3,16.5-8.5,31.4c-6.2,14.9-11.5,24.1-16.2,28.3
				C483.9,721.8,481.2,722.9,478.4,722.9z M479.6,681.6L479.6,681.6c-5.8,14.1-8.6,24.1-8.2,29.7c0.3,3.6,1.7,5.9,4.3,7
				c2.7,1.1,5.3,0.5,8.1-1.9c4.2-3.7,9.3-12.7,15.1-26.8c5.8-14.1,8.6-24,8.2-29.6c-0.3-3.7-1.7-6.1-4.4-7.2c-2.6-1.1-5.2-0.5-8,1.9
				C490.6,658.5,485.5,667.5,479.6,681.6z"/>
		</g>
	</g>
</g>
<g id="Layer_3">
	<g>
		<g>
			<path class="st6" d="M1349.2,406.7v311.8c0,7.2-6,13.1-13.5,13.1H794.7c-7.4,0-13.5-5.9-13.5-13.1V406.7c0-7.2,6-13.1,13.5-13.1
				h541.1C1343.2,393.6,1349.2,399.5,1349.2,406.7z"/>
		</g>
		<g class="st18">
			<g>
				<path class="st1" d="M1349.2,446.3v272.2c0,7.2-6,13.1-13.5,13.1H878.1c3.2-9.9,6.5-19.6,6.5-30.9c0-19.6-6.7-37.6-6.7-57.2
					c-1.7-93.2,111.1-116.1,183.5-80.1c23.6,9.8,45.5,18,64,34.3c16.8,14.7,30.3,32.7,48.8,44.2c37,22.9,79.1,8.2,89.2-36
					c6.7-36-15.2-68.7-3.4-104.7c6.7-22.9,26.9-39.3,50.5-49.1C1324.2,447.3,1337.2,445.5,1349.2,446.3z"/>
			</g>
		</g>
		<g>
			<rect x="781.2" y="610.5" class="st19" width="568" height="66.6"/>
		</g>
		<g>
			<g>
				<rect x="826.2" y="532.1" class="st3" width="180.8" height="7.9"/>
			</g>
			<g>
				<rect x="826.2" y="565.6" class="st3" width="180.8" height="7.9"/>
			</g>
		</g>
		<g>
			<g>
				
					<ellipse transform="matrix(1.803844e-02 -0.9998 0.9998 1.803844e-02 691.0831 1671.2389)" class="st20" cx="1196.4" cy="483.8" rx="46.6" ry="46.6"/>
			</g>
			<g>
				<path class="st7" d="M1196.2,483.8c0.4-25.7,21.6-46.3,47.3-45.9c25.7,0.4,46.3,21.6,45.9,47.3c-0.4,25.7-21.6,46.3-47.3,45.9
					C1216.3,530.7,1195.8,509.5,1196.2,483.8z"/>
			</g>
		</g>
	</g>
</g>
</svg>
